<?xml version="1.0" standalone="no"?>
<!DOCTYPE svg PUBLIC "-//W3C//DTD SVG 20010904//EN"
 "http://www.w3.org/TR/2001/REC-SVG-20010904/DTD/svg10.dtd">
<svg version="1.0" xmlns="http://www.w3.org/2000/svg"
 width="809.000000pt" height="293.000000pt" viewBox="0 0 809.000000 293.000000"
 preserveAspectRatio="xMidYMid meet">

<g transform="translate(0.000000,293.000000) scale(0.100000,-0.100000)"
fill="#8c03fc" stroke="none">
<path d="M5490 1635 c0 -1194 1 -1265 18 -1273 9 -5 581 -6 1270 -4 l1252 4
-2 1267 -3 1266 -1267 3 -1268 2 0 -1265z m278 1048 l3 -63 -66 0 -65 0 0 58
c0 32 3 62 7 66 4 4 32 6 63 4 l55 -3 3 -62z m300 0 l3 -63 -66 0 -65 0 0 59
c0 68 3 71 75 68 l50 -2 3 -62z m318 44 c3 -13 4 -41 2 -63 l-3 -39 -67 -3
-68 -3 0 59 c0 32 3 62 7 65 3 4 32 7 64 7 53 0 59 -2 65 -23z m302 -44 l3
-63 -66 0 -65 0 0 58 c0 32 3 62 7 66 4 4 32 6 63 4 l55 -3 3 -62z m282 2 l0
-65 -65 0 -65 0 0 58 c0 32 3 62 7 65 3 4 33 7 65 7 l58 0 0 -65z m308 -2 l3
-63 -71 0 -70 0 0 59 c0 38 5 61 13 65 6 2 37 4 67 3 l55 -2 3 -62z m310 0 l3
-63 -71 0 -70 0 0 58 c0 32 3 62 7 66 4 4 34 6 68 4 l60 -3 3 -62z m302 2 l0
-65 -70 0 -70 0 0 59 c0 38 4 61 13 64 6 3 38 6 70 6 l57 1 0 -65z m-2130
-305 l0 -61 -57 3 -58 3 -3 44 c-5 66 0 71 63 71 l55 0 0 -60z m310 0 l0 -60
-60 0 -60 0 0 53 c0 30 3 57 7 60 3 4 30 7 60 7 l53 0 0 -60z m308 -2 l3 -58
-59 0 c-65 0 -72 6 -72 60 0 55 7 61 69 58 l56 -3 3 -57z m310 18 c2 -22 1
-50 -2 -63 -6 -21 -12 -23 -60 -23 -47 0 -54 3 -60 23 -8 31 -8 92 1 101 4 4
32 6 63 4 l55 -3 3 -39z m280 -18 l3 -58 -61 0 -60 0 0 60 0 61 58 -3 57 -3 3
-57z m307 2 l0 -55 -62 -3 -63 -3 0 54 c0 29 3 57 7 61 4 4 32 6 63 4 l55 -3
0 -55z m305 0 l0 -60 -59 0 c-64 0 -71 6 -71 64 0 45 16 56 77 56 l53 0 0 -60z
m310 0 l0 -60 -59 0 c-44 0 -60 4 -65 16 -8 21 -8 89 1 97 3 4 33 7 65 7 l58
0 0 -60z m-2 -303 l3 -68 -63 3 -63 3 -3 53 c-4 71 8 84 72 80 l51 -3 3 -68z
m-2128 -2 l0 -66 -57 3 -58 3 -3 49 c-5 71 -1 76 63 76 l55 0 0 -65z m305 0
l0 -60 -55 0 -55 0 -3 49 c-5 72 -1 78 60 74 l53 -3 0 -60z m315 0 l0 -65 -59
0 c-58 0 -60 1 -66 31 -4 17 -4 46 -1 65 l7 34 59 0 60 0 0 -65z m305 0 l0
-60 -57 -3 -58 -3 0 66 0 66 58 -3 57 -3 0 -60z m275 -1 l0 -65 -52 3 -53 3
-3 49 c-5 70 0 76 58 76 l50 0 0 -66z m315 1 l0 -60 -60 0 -60 0 -3 63 -3 63
63 -3 63 -3 0 -60z m305 0 l0 -65 -60 0 -60 0 0 65 0 65 60 0 60 0 0 -65z
m-1815 -305 l0 -65 -62 -3 -63 -3 0 64 c0 35 3 67 7 71 4 4 32 6 63 4 l55 -3
0 -65z m303 -2 l3 -68 -61 0 -60 0 0 63 c0 35 3 67 7 71 4 4 30 6 58 4 l50 -3
3 -67z m310 0 l3 -68 -59 0 c-65 0 -72 7 -72 73 0 54 16 68 73 65 l52 -3 3
-67z m307 2 l0 -65 -54 -3 c-63 -4 -71 4 -71 65 0 69 5 74 69 71 l56 -3 0 -65z
m285 0 l0 -71 -62 3 -63 3 -3 54 c-5 78 -2 81 68 81 l60 0 0 -70z m308 -3 l3
-68 -68 3 -68 3 -3 44 c-2 25 -1 55 3 68 5 22 10 24 68 21 l62 -3 3 -68z m307
50 c4 -13 5 -43 3 -68 l-3 -44 -65 0 -65 0 -3 44 c-6 83 0 91 68 91 54 0 60
-2 65 -23z m303 -44 l-3 -68 -60 0 -60 0 -3 53 c-4 70 7 82 75 82 l54 0 -3
-67z m-1198 -232 c14 -27 13 -84 -3 -105 -10 -13 -24 -17 -67 -14 l-55 3 -3
54 c-4 77 -1 81 62 81 44 0 57 -4 66 -19z m275 -51 l0 -65 -54 -3 c-63 -4 -71
4 -71 65 0 69 5 74 69 71 l56 -3 0 -65z m310 0 l0 -65 -53 -3 c-68 -4 -82 8
-82 67 0 62 12 73 80 69 l55 -3 0 -65z m309 54 c3 -9 6 -33 6 -54 0 -63 -6
-70 -64 -70 -29 0 -57 5 -64 12 -7 7 -12 33 -12 58 0 25 5 51 12 58 19 19 114
16 122 -4z m310 -6 c8 -30 8 -82 0 -102 -8 -20 -103 -23 -122 -4 -16 16 -16
115 1 121 6 3 35 6 63 6 45 1 52 -2 58 -21z m-2128 -12 c3 -13 4 -38 2 -57
l-3 -34 -60 0 -60 0 -3 44 c-5 66 0 71 62 71 50 0 56 -2 62 -24z m304 -36 l0
-60 -60 0 -60 0 0 60 0 60 60 0 60 0 0 -60z m310 0 l0 -60 -60 0 -60 0 0 60 0
60 60 0 60 0 0 -60z m-620 -305 l0 -66 -57 3 -58 3 -3 39 c-2 22 -1 50 2 63 6
21 12 23 61 23 l55 0 0 -65z m314 49 c10 -27 7 -99 -6 -112 -7 -7 -33 -12 -58
-12 -25 0 -51 5 -58 12 -13 13 -16 85 -6 112 9 23 119 23 128 0z m301 -49 l0
-60 -54 -3 c-61 -4 -71 4 -71 56 0 60 14 73 73 70 l52 -3 0 -60z m310 -5 l0
-65 -48 -3 c-27 -2 -55 2 -63 9 -15 12 -20 109 -7 123 4 4 32 6 63 4 l55 -3 0
-65z m280 0 l0 -65 -39 -3 c-22 -2 -50 -1 -63 2 -20 6 -23 12 -23 59 0 67 12
79 75 75 l50 -3 0 -65z m310 0 l0 -65 -53 -3 c-67 -4 -82 8 -82 63 0 72 4 76
74 73 l61 -3 0 -65z m310 0 l0 -65 -65 0 -65 0 -3 54 c-5 80 -2 82 70 79 l63
-3 0 -65z m303 3 l-3 -68 -48 -3 c-27 -2 -55 2 -63 9 -14 12 -20 109 -7 122 3
4 33 7 65 7 l59 0 -3 -67z m-920 -306 l3 -68 -63 3 -63 3 -3 54 c-5 79 -2 82
65 79 l58 -3 3 -68z m-1208 3 l0 -60 -55 0 -55 0 0 60 0 60 55 0 55 0 0 -60z
m320 11 c0 -77 -4 -81 -71 -81 l-59 0 0 65 0 65 65 0 65 0 0 -49z m298 -13
l-3 -63 -48 -3 c-27 -2 -55 2 -63 9 -14 12 -20 99 -7 112 3 4 33 7 65 7 l59 0
-3 -62z m312 13 c0 -76 -4 -81 -66 -81 l-54 0 0 65 0 65 60 0 60 0 0 -49z
m588 -13 l-3 -63 -59 -3 c-70 -4 -76 2 -76 76 l0 52 70 0 71 0 -3 -62z m312 5
c0 -79 -5 -85 -76 -81 l-59 3 -3 68 -3 67 71 0 70 0 0 -57z m300 -8 l0 -66
-62 3 -63 3 -3 63 -3 62 66 0 65 0 0 -65z m-1812 -284 c6 -83 0 -91 -67 -91
-44 0 -60 4 -65 16 -8 22 -8 109 1 118 4 4 34 6 68 4 l60 -3 3 -44z m310 -9
c2 -31 -2 -60 -9 -68 -17 -20 -115 -19 -123 2 -8 22 -8 109 1 118 4 4 34 6 68
4 l60 -3 3 -53z m890 9 c6 -81 -1 -91 -62 -91 -40 0 -55 4 -60 16 -8 22 -8
109 1 118 4 4 32 6 63 4 l55 -3 3 -44z m307 -21 l0 -65 -65 0 -65 0 -3 54 c-5
80 -2 82 70 79 l63 -3 0 -65z m305 0 l0 -71 -62 3 -63 3 -3 54 c-5 78 -2 81
68 81 l60 0 0 -70z m-2120 8 c0 -73 -7 -80 -71 -76 l-54 3 -3 63 -3 62 66 0
65 0 0 -52z m918 -10 l-3 -63 -57 -3 -58 -3 0 66 0 65 60 0 61 0 -3 -62z m280
0 l-3 -63 -54 -3 c-64 -4 -71 3 -71 76 l0 52 65 0 66 0 -3 -62z"/>
<path d="M4556 2809 c-22 -17 -26 -29 -26 -68 0 -27 -3 -68 -6 -93 -6 -40 -10
-47 -43 -62 -21 -8 -47 -26 -58 -38 -27 -30 -73 -114 -73 -134 0 -30 -25 -7
-36 33 -33 114 -79 145 -159 107 -18 -8 -40 -30 -50 -48 -20 -36 -18 -48 20
-196 9 -36 23 -92 31 -125 8 -33 30 -86 49 -118 39 -64 42 -93 21 -206 -12
-72 -32 -94 -66 -73 -11 6 -33 12 -50 12 -36 0 -36 0 -10 42 26 43 25 60 -6
89 -25 23 -30 24 -189 24 -90 0 -167 3 -171 7 -10 11 36 74 142 195 51 57 95
116 99 130 12 49 -35 89 -157 134 -43 15 -79 19 -197 19 -212 0 -271 -23 -271
-106 0 -36 5 -46 30 -64 28 -20 39 -21 118 -16 48 3 111 8 140 12 47 5 52 4
52 -14 0 -19 -23 -51 -117 -161 -58 -68 -118 -170 -128 -218 -5 -27 -2 -34 27
-56 63 -47 108 -51 416 -44 l152 3 0 -62 c0 -57 3 -66 34 -98 32 -35 36 -36
106 -36 117 0 151 34 220 215 4 11 13 34 20 50 8 17 17 71 20 120 14 172 32
251 78 355 14 30 31 68 38 85 11 28 15 29 75 30 l64 0 0 176 c0 160 -2 179
-19 198 -25 28 -84 28 -120 0z"/>
<path d="M4935 2593 c-44 -11 -155 -106 -181 -155 -50 -95 27 -190 196 -243
116 -36 134 -46 138 -76 4 -33 -23 -56 -74 -65 -36 -5 -45 -2 -76 25 -48 42
-81 40 -125 -4 -30 -30 -35 -40 -29 -67 11 -57 67 -100 163 -129 45 -13 83 -8
141 17 136 58 181 107 202 216 19 98 -28 146 -218 219 -13 5 -32 9 -43 9 -26
0 -79 37 -79 55 0 32 61 33 132 0 86 -39 109 -41 146 -10 40 33 42 75 8 120
-46 59 -216 109 -301 88z"/>
<path d="M1833 2520 c-17 -10 -37 -28 -43 -40 -10 -18 -21 -160 -20 -260 1
-206 18 -498 32 -555 5 -22 21 -55 34 -72 30 -40 74 -44 128 -12 24 14 65 23
133 29 190 18 262 40 318 99 33 34 51 37 79 16 12 -9 42 -15 72 -15 45 0 56 4
74 28 18 22 21 34 15 72 -14 88 -20 276 -11 332 10 66 3 81 -52 104 -27 11
-43 12 -67 4 -69 -23 -102 -100 -91 -219 3 -39 9 -102 12 -141 3 -38 3 -70 -1
-70 -3 0 -21 11 -39 25 -18 14 -45 25 -60 25 -25 0 -64 -15 -76 -29 -23 -28
-114 -51 -219 -55 -30 -1 -35 3 -43 29 -8 30 -22 232 -19 270 1 11 5 83 7 160
7 176 -4 235 -50 270 -39 30 -70 32 -113 5z"/>
<path d="M2482 2479 c-65 -42 -77 -112 -28 -158 18 -17 37 -22 76 -23 49 -1
56 1 82 32 35 43 40 116 8 145 -31 28 -99 30 -138 4z"/>
<path d="M2800 2364 c-99 -12 -140 -43 -140 -108 0 -28 7 -40 35 -62 33 -25
40 -26 103 -20 37 3 93 10 126 15 60 10 86 6 86 -12 0 -5 -33 -49 -73 -96
-123 -145 -175 -227 -180 -282 -1 -25 5 -37 33 -60 31 -25 48 -30 140 -40 80
-9 116 -8 155 1 49 12 132 10 186 -5 38 -10 113 29 139 71 28 48 25 69 -12 95
-31 22 -40 23 -190 21 -149 -2 -158 -1 -158 17 0 20 62 103 140 186 75 80 90
104 90 146 0 46 -26 67 -127 105 -56 21 -89 26 -193 29 -69 2 -141 1 -160 -1z"/>
<path d="M1903 1479 c-54 -34 -74 -81 -76 -173 -1 -45 4 -126 11 -181 10 -80
10 -108 0 -142 -7 -24 -16 -43 -21 -43 -5 0 -27 16 -49 35 -53 49 -180 105
-236 105 -35 0 -125 -26 -167 -49 -55 -30 -99 -82 -125 -147 -12 -29 -26 -52
-30 -49 -4 3 -15 21 -25 40 -21 45 -68 75 -118 75 -31 0 -46 -7 -74 -35 l-35
-35 5 -87 c2 -49 10 -118 17 -155 11 -58 10 -78 -5 -153 -11 -50 -24 -89 -32
-92 -19 -7 -48 21 -96 92 -82 120 -156 185 -212 185 -54 0 -128 -107 -176
-252 -26 -83 -42 -99 -63 -66 -8 13 -22 48 -31 78 -9 30 -25 75 -36 100 -15
36 -19 66 -17 151 1 82 -3 117 -18 159 -22 60 -61 105 -99 112 -47 9 -108 -8
-132 -39 -22 -27 -23 -34 -20 -153 7 -209 22 -318 56 -395 5 -11 19 -45 31
-75 30 -73 69 -129 127 -180 l48 -42 75 4 c125 8 202 61 254 176 11 23 23 42
29 42 5 0 37 -26 71 -57 79 -74 131 -92 214 -73 71 16 149 65 194 122 30 38
43 64 79 156 5 13 9 41 9 62 0 52 16 51 39 -2 56 -132 155 -227 268 -260 52
-15 65 -15 123 -3 36 8 77 14 91 15 41 0 108 38 129 73 28 46 26 99 -6 136
-14 17 -33 31 -43 31 -9 0 -40 -16 -70 -35 -45 -30 -61 -35 -111 -35 -41 0
-61 5 -71 16 -12 15 -7 23 46 72 33 30 78 66 100 80 58 37 145 128 145 151 0
12 4 21 8 21 14 0 32 -65 32 -116 0 -63 35 -267 55 -321 22 -56 54 -76 114
-70 168 20 188 27 327 128 99 72 156 129 193 193 26 44 29 46 34 24 4 -13 11
-78 17 -143 10 -122 18 -160 52 -275 21 -71 47 -106 95 -126 44 -19 90 -17
141 6 60 27 60 56 1 136 -21 29 -39 62 -39 73 0 11 -5 32 -11 48 -35 90 -46
176 -30 248 7 32 37 52 104 67 46 10 189 79 232 113 17 12 43 46 59 74 47 87
37 201 -26 278 -26 32 -138 68 -248 79 -80 8 -88 12 -100 49 -6 19 -21 42 -33
50 -28 20 -110 19 -148 -1 -38 -19 -68 -83 -69 -142 0 -24 -4 -51 -10 -61 -7
-13 -4 -29 11 -57 17 -32 19 -50 15 -99 -4 -32 -10 -63 -15 -68 -4 -4 -21 9
-36 30 -61 82 -123 127 -230 166 -89 32 -115 37 -193 37 l-82 0 -17 35 c-14
30 -15 44 -5 112 17 108 15 131 -12 190 -37 79 -92 101 -153 62z m1125 -501
c6 -6 12 -30 12 -53 0 -39 -5 -47 -47 -84 -80 -71 -117 -69 -126 9 -7 62 10
120 39 135 25 12 103 8 122 -7z m-814 -104 c88 -29 140 -59 169 -100 24 -35
27 -46 21 -84 -9 -58 -56 -108 -144 -154 l-69 -37 -17 33 c-24 46 -33 81 -49
187 -28 178 -21 190 89 155z m-606 -30 c25 -17 28 -43 8 -82 -20 -39 -45 -58
-96 -76 -44 -15 -45 -15 -62 7 -25 32 -24 107 3 141 17 22 28 26 73 26 30 0
61 -6 74 -16z"/>
<path d="M4285 1465 c-27 -14 -57 -25 -66 -25 -57 0 -210 -132 -247 -213 -26
-56 -32 -54 -78 18 -39 63 -105 93 -205 96 -104 3 -249 -45 -311 -102 -24 -23
-28 -35 -28 -79 0 -46 4 -56 34 -86 19 -19 43 -34 54 -34 11 0 54 18 96 40 62
33 87 41 138 43 l63 2 3 -32 c3 -31 1 -33 -28 -33 -46 0 -167 -29 -220 -52
-61 -27 -154 -126 -174 -185 -9 -26 -16 -77 -16 -115 0 -55 5 -76 24 -106 26
-40 66 -80 106 -105 25 -16 135 -35 257 -44 52 -4 64 -9 78 -29 14 -22 22 -25
73 -22 51 3 58 6 75 35 16 28 19 59 23 215 2 101 7 228 11 283 l8 100 28 -47
c32 -53 111 -128 135 -128 9 0 30 -5 47 -11 27 -10 39 -8 88 16 57 27 87 28
87 3 0 -7 6 -25 14 -40 8 -14 17 -50 21 -80 4 -29 16 -79 27 -112 22 -69 27
-200 9 -235 -21 -39 -71 -23 -142 46 -70 68 -89 77 -137 64 -50 -14 -82 -48
-82 -87 0 -43 67 -127 135 -169 47 -29 52 -30 170 -30 119 0 123 1 166 30 58
39 63 45 84 85 25 47 25 177 2 243 -9 26 -17 64 -17 85 0 20 -10 69 -21 107
-27 91 -39 179 -45 342 -5 118 -3 139 16 193 37 104 19 133 -104 165 -76 20
-92 19 -151 -10z m24 -197 c14 -24 13 -34 -19 -129 -20 -56 -43 -107 -52 -113
-25 -16 -47 1 -64 49 -28 82 -14 137 51 194 42 37 63 37 84 -1z m-555 -442 c6
-27 5 -50 -3 -71 -6 -17 -11 -43 -11 -57 0 -48 -25 -61 -105 -55 -96 7 -139
31 -143 80 -3 31 3 41 39 76 30 30 50 41 73 41 17 1 45 7 61 15 17 8 41 13 55
12 20 -2 26 -10 34 -41z"/>
<path d="M4773 1425 c-17 -8 -34 -19 -38 -25 -3 -5 -15 -10 -25 -10 -21 0 -97
-81 -115 -125 -32 -75 -39 -115 -27 -161 7 -24 12 -66 12 -92 0 -57 54 -193
105 -268 47 -68 135 -129 216 -149 43 -11 219 15 269 38 61 29 97 92 81 139
-14 39 -49 78 -71 78 -9 0 -45 -16 -80 -35 -90 -48 -170 -47 -170 3 0 18 49
62 115 106 100 65 185 165 185 217 0 63 -93 195 -172 245 -72 46 -223 66 -285
39z m162 -211 c27 -11 37 -51 21 -87 -20 -48 -45 -65 -101 -69 l-50 -3 -3 56
c-4 74 21 109 78 109 21 0 46 -3 55 -6z"/>
</g>
</svg>
