<?xml version="1.0" standalone="no"?>
<!DOCTYPE svg PUBLIC "-//W3C//DTD SVG 20010904//EN"
 "http://www.w3.org/TR/2001/REC-SVG-20010904/DTD/svg10.dtd">
<svg version="1.0" xmlns="http://www.w3.org/2000/svg"
 width="3371.000000pt" height="3371.000000pt" viewBox="0 0 3371.000000 3371.000000"
 preserveAspectRatio="xMidYMid meet">
<metadata>
Created by potrace 1.14, written by Peter Selinger 2001-2017
</metadata>
<g transform="translate(0.000000,3371.000000) scale(0.100000,-0.100000)"
fill="#000000" stroke="none">
<path d="M14250 21976 c-363 -42 -618 -105 -944 -233 -169 -66 -295 -129 -484
-240 -152 -90 -165 -98 -346 -234 -214 -161 -460 -401 -598 -585 -28 -38 -55
-71 -58 -74 -15 -12 -131 -183 -183 -270 -31 -52 -61 -101 -67 -108 -15 -16
-155 -300 -174 -349 -8 -21 -33 -87 -56 -148 -45 -119 -86 -247 -116 -362 -10
-40 -23 -73 -29 -73 -6 0 -53 17 -105 38 -277 112 -553 185 -865 227 -160 22
-563 31 -736 16 -459 -40 -918 -169 -1289 -363 -145 -76 -347 -194 -367 -214
-7 -7 -29 -22 -50 -35 -52 -31 -243 -177 -268 -203 -11 -12 -60 -58 -110 -101
-115 -102 -98 -86 -190 -190 -43 -49 -88 -99 -100 -110 -24 -22 -162 -203
-210 -275 -17 -25 -32 -47 -35 -50 -15 -13 -107 -171 -184 -314 -187 -348
-313 -745 -373 -1176 -25 -179 -25 -721 0 -900 61 -437 186 -829 378 -1185 74
-136 165 -292 179 -305 3 -3 18 -25 35 -50 48 -72 186 -253 210 -275 12 -11
57 -60 100 -110 96 -109 81 -94 190 -190 50 -44 92 -83 93 -87 4 -9 207 -165
288 -222 79 -55 289 -178 424 -249 362 -189 825 -319 1279 -358 173 -15 576
-6 736 16 465 63 891 206 1290 432 214 121 492 328 690 516 l101 95 29 -42
c33 -46 173 -202 251 -280 135 -135 277 -252 498 -413 66 -47 317 -193 432
-251 363 -182 797 -301 1247 -343 161 -15 591 -6 737 15 318 46 586 115 835
214 28 11 74 30 103 41 246 98 655 352 890 553 39 33 52 35 52 8 0 -36 80
-263 129 -365 362 -759 1196 -1173 2022 -1005 285 58 587 200 799 376 119 99
318 321 368 410 7 12 19 10 78 -15 500 -211 1053 -196 1544 43 179 87 325 191
480 344 83 81 85 82 99 62 22 -32 130 -106 191 -130 183 -72 408 -23 543 119
70 73 122 178 137 276 6 38 13 71 14 73 2 2 57 -4 122 -13 66 -9 199 -19 296
-22 l177 -6 60 -77 c70 -88 239 -255 326 -321 355 -270 822 -408 1254 -371
538 47 994 292 1321 710 51 66 69 82 85 78 11 -3 76 -8 145 -12 140 -7 301 6
454 37 552 112 1022 474 1272 980 148 299 213 637 186 961 -15 172 -39 291
-91 448 -161 480 -514 871 -976 1082 -159 73 -319 118 -536 153 l-37 5 -6 78
c-37 415 -116 742 -271 1117 -57 139 -269 532 -305 565 -3 3 -18 25 -35 50
-48 72 -186 253 -210 275 -12 11 -57 61 -100 110 -96 109 -81 94 -190 190 -49
44 -92 83 -93 87 -4 9 -207 165 -288 222 -174 122 -492 292 -690 369 -440 172
-839 247 -1309 247 -183 -1 -243 -4 -447 -26 -55 -5 -68 -4 -68 7 0 19 -87
163 -157 261 -60 84 -232 265 -316 334 -98 79 -234 165 -347 220 -602 293
-1294 247 -1845 -123 -128 -87 -283 -226 -380 -342 -32 -39 -62 -71 -65 -71
-3 0 -16 24 -30 52 -14 29 -51 81 -84 115 -170 182 -459 209 -657 60 -52 -38
-117 -107 -138 -145 -7 -12 -29 6 -112 90 -126 127 -165 160 -295 247 -171
116 -368 202 -584 255 -156 39 -256 51 -435 51 -179 0 -279 -12 -435 -51 -263
-65 -494 -176 -698 -336 l-62 -49 -88 90 c-140 143 -259 245 -456 388 -170
124 -499 310 -658 374 -29 11 -75 30 -103 41 -249 99 -514 167 -835 214 -146
21 -646 27 -800 10z m5741 -1659 c64 -43 64 -42 67 -463 l4 -381 -125 -5 c-68
-3 -134 -11 -146 -18 -23 -12 -41 -48 -136 -270 -93 -215 -130 -380 -159 -695
-24 -261 -32 -294 -108 -485 -82 -205 -125 -287 -185 -351 -65 -69 -124 -91
-260 -97 -161 -6 -193 0 -244 51 -93 93 -94 95 -97 246 l-4 136 -531 0 c-523
0 -533 0 -603 22 -79 25 -188 98 -199 133 -27 84 112 338 329 600 173 208 184
223 205 270 15 33 17 49 9 63 -11 22 -19 22 -285 -3 -62 -5 -164 -11 -228 -11
-111 -2 -117 -1 -162 27 -65 40 -86 81 -80 159 2 34 12 75 21 93 34 67 129
104 306 121 123 11 463 11 563 0 188 -22 444 -146 492 -240 39 -74 10 -124
-242 -415 -221 -256 -309 -382 -284 -407 6 -6 151 -12 373 -16 399 -8 398 -7
452 -71 44 -52 43 -73 -3 -164 -22 -44 -41 -86 -41 -92 0 -16 24 -24 73 -24
23 -1 60 -8 82 -16 71 -28 84 -28 110 -4 36 34 67 151 84 316 12 121 -1 182
-65 301 -78 145 -96 199 -179 535 -81 324 -88 383 -55 447 40 79 155 151 241
151 94 0 162 -78 218 -250 41 -125 84 -166 97 -92 13 74 120 259 180 312 19
16 67 46 105 66 55 27 73 42 84 68 13 31 29 171 38 323 3 50 8 68 28 89 59 65
193 86 260 41z m876 -512 c203 -39 374 -125 426 -217 54 -94 37 -179 -51 -245
-71 -53 -120 -47 -333 41 -48 20 -113 39 -147 42 -96 10 -150 -23 -122 -75 24
-46 139 -110 198 -111 38 0 218 -71 336 -133 100 -52 189 -133 212 -193 36
-96 -4 -298 -82 -411 -52 -76 -130 -134 -269 -202 -158 -78 -213 -95 -305 -94
-131 1 -314 83 -402 181 -41 46 -74 137 -62 174 11 37 53 86 107 125 41 30 58
37 98 37 49 0 51 -1 174 -90 48 -34 53 -36 113 -31 124 10 203 78 188 161 -10
53 -62 83 -254 146 -254 83 -391 161 -465 266 -43 61 -55 98 -56 170 -1 70 21
121 84 197 79 96 256 236 331 262 52 19 183 19 281 0z m-6989 -155 c59 -40 90
-84 110 -153 21 -76 26 -346 13 -644 -15 -328 8 -728 46 -810 20 -42 48 -47
188 -33 193 20 310 52 380 105 60 47 98 64 149 71 56 8 101 -7 180 -62 36 -24
70 -44 76 -44 15 0 13 73 -10 341 -22 259 -18 351 19 449 27 72 67 119 131
154 72 39 131 38 216 -4 95 -46 101 -63 84 -229 -14 -137 -9 -419 10 -596 26
-232 25 -235 -10 -283 -44 -61 -84 -76 -192 -69 -68 3 -98 10 -137 31 -78 40
-97 36 -182 -40 -146 -131 -265 -169 -667 -214 -221 -24 -256 -32 -352 -75
-41 -18 -89 -36 -107 -40 -46 -9 -109 11 -146 48 -38 39 -82 125 -97 190 -51
229 -87 1380 -52 1671 16 129 28 162 73 201 97 82 192 94 277 35z m1492 -78
c56 -27 80 -73 80 -152 0 -88 -22 -150 -75 -208 l-43 -47 -87 -4 c-105 -4
-163 11 -205 52 -50 49 -63 82 -58 153 5 75 38 130 105 178 80 56 201 68 283
28z m1001 -283 c170 -17 413 -110 475 -181 58 -66 54 -156 -11 -253 -18 -27
-76 -97 -129 -155 -181 -196 -336 -400 -336 -441 0 -10 6 -21 13 -26 6 -4 165
-10 352 -13 378 -6 380 -6 452 -77 41 -42 43 -79 7 -151 -40 -81 -136 -153
-242 -181 -34 -10 -57 -9 -120 5 -104 22 -283 22 -397 -1 -68 -13 -115 -16
-191 -11 -133 8 -313 33 -365 51 -54 20 -126 79 -146 120 -47 100 68 303 391
690 143 172 172 214 159 233 -19 31 -65 32 -263 6 -107 -14 -233 -26 -280 -27
-97 -2 -129 12 -194 83 -34 37 -36 44 -36 106 0 123 62 184 225 219 75 17 490
19 636 4z m-95 -1784 c47 -28 80 -72 126 -170 41 -89 48 -196 23 -364 -26
-177 -24 -226 13 -304 l31 -67 140 0 c178 0 270 -13 401 -57 290 -96 412 -179
604 -406 29 -36 54 -57 65 -55 24 5 42 87 44 203 2 94 0 104 -31 165 -33 68
-39 101 -22 145 5 14 14 73 20 132 15 166 76 277 172 318 53 22 172 30 239 16
69 -14 97 -41 138 -134 38 -85 47 -89 251 -116 222 -30 397 -79 490 -139 50
-32 102 -110 134 -201 24 -70 33 -234 16 -314 -19 -91 -75 -192 -149 -267 -60
-61 -84 -76 -261 -163 -129 -64 -230 -107 -297 -126 -114 -32 -177 -64 -206
-102 -61 -84 -45 -367 33 -579 17 -45 30 -93 30 -108 1 -39 30 -98 99 -200
121 -177 122 -229 6 -286 -113 -55 -237 -60 -336 -13 -100 48 -145 108 -193
256 -75 231 -96 339 -126 656 -22 223 -35 314 -48 327 -11 11 -28 -10 -87
-107 -91 -150 -339 -369 -606 -537 -143 -90 -258 -124 -500 -149 -106 -11
-122 -11 -163 5 -88 34 -130 109 -174 316 -31 146 -70 410 -81 558 -11 139
-42 247 -70 247 -8 0 -19 -19 -26 -43 -21 -69 -164 -225 -289 -315 -192 -137
-381 -310 -374 -343 7 -39 55 -59 149 -63 113 -4 166 9 254 64 39 23 94 55
123 69 49 25 54 25 81 11 43 -22 97 -90 111 -141 16 -56 8 -139 -18 -191 -27
-53 -102 -119 -167 -149 -32 -15 -103 -33 -172 -44 -65 -10 -160 -26 -212 -35
-87 -15 -98 -15 -170 0 -271 60 -497 259 -645 569 -71 150 -99 151 -108 3 -6
-89 -44 -203 -115 -338 -89 -172 -256 -313 -448 -376 -64 -21 -100 -27 -180
-27 -97 -1 -104 0 -175 36 -49 24 -114 71 -185 134 -60 53 -122 105 -137 115
l-27 19 -24 -32 c-14 -18 -41 -65 -60 -103 -46 -92 -115 -183 -174 -229 -107
-83 -228 -120 -428 -131 l-120 -7 -98 92 c-116 109 -173 182 -232 293 -62 119
-153 345 -175 441 -43 181 -69 467 -72 796 -2 213 1 228 59 281 78 73 236 99
323 54 41 -21 114 -106 144 -166 51 -105 58 -147 65 -414 7 -239 9 -253 35
-325 15 -41 51 -143 80 -226 107 -307 134 -309 236 -19 120 339 278 549 402
532 122 -16 260 -142 450 -409 107 -151 166 -211 206 -206 23 3 30 12 49 66
13 35 32 109 44 165 24 115 22 239 -5 407 -9 52 -21 176 -27 275 l-11 180 70
67 c100 95 173 110 290 58 63 -28 104 -70 154 -157 23 -40 47 -72 52 -70 6 1
36 52 66 113 117 235 226 326 474 398 137 40 195 42 301 11 156 -46 303 -126
446 -243 28 -24 59 -42 68 -40 22 4 47 61 62 140 10 57 9 98 -11 292 -28 285
-25 507 8 600 26 73 60 116 119 157 90 63 160 69 239 24z m5419 -12 c131 -31
214 -64 256 -102 38 -33 42 -42 46 -91 4 -44 -3 -77 -34 -170 l-38 -115 2
-215 c2 -376 27 -599 101 -890 22 -85 43 -190 46 -233 4 -43 18 -116 31 -162
37 -128 48 -217 42 -350 -6 -136 -23 -201 -70 -271 -34 -51 -128 -128 -212
-172 l-50 -27 -261 0 -260 0 -80 39 c-149 74 -344 299 -344 398 0 130 200 242
326 182 19 -9 71 -51 117 -93 117 -108 167 -147 218 -170 56 -26 90 -26 122
-1 40 32 51 81 50 225 -2 151 -12 227 -53 373 -16 57 -39 154 -51 216 -17 94
-60 231 -89 286 -15 29 -97 17 -196 -28 -51 -23 -105 -42 -120 -42 -45 0 -164
30 -213 53 -61 30 -192 162 -251 255 -83 129 -76 125 -83 57 -15 -136 -27
-381 -37 -730 -12 -398 -20 -485 -49 -543 -32 -63 -51 -74 -148 -83 -108 -10
-156 1 -179 40 -30 50 -61 60 -236 77 -178 16 -381 47 -456 69 -69 21 -131 65
-214 154 -99 105 -130 169 -136 286 -5 109 11 247 39 322 42 109 218 308 334
374 99 57 332 121 504 139 46 5 88 13 93 18 5 5 8 38 6 73 l-3 64 -105 -3
c-145 -4 -184 -14 -345 -92 -220 -107 -226 -108 -307 -45 -74 58 -99 101 -105
187 -10 130 17 183 131 257 259 169 693 223 911 114 80 -40 119 -77 183 -171
68 -100 85 -117 107 -108 15 5 21 14 85 128 65 116 298 336 424 400 22 12 73
29 113 39 39 10 99 32 133 49 118 59 172 65 305 33z m1130 -108 c181 -29 292
-79 400 -177 126 -115 264 -329 281 -433 8 -56 -8 -108 -58 -185 -65 -98 -197
-224 -353 -335 -163 -115 -255 -201 -255 -238 0 -61 38 -87 128 -87 78 0 140
20 284 91 66 32 134 59 149 59 66 0 161 -131 161 -221 0 -93 -72 -198 -172
-249 -68 -35 -278 -76 -487 -95 -89 -9 -150 4 -260 55 -104 48 -161 87 -247
169 -85 82 -133 152 -202 295 -81 170 -123 306 -134 434 -5 59 -17 147 -27
195 -16 82 -17 92 -1 165 33 162 110 298 232 410 32 28 65 52 74 52 18 0 36
10 103 54 82 55 213 69 384 41z"/>
<path d="M18323 16404 c-34 -8 -80 -68 -98 -126 -17 -60 -20 -185 -4 -243 15
-54 45 -85 83 -85 47 0 132 55 218 139 68 68 77 81 83 124 5 29 2 69 -6 104
-12 48 -19 60 -43 72 -30 14 -190 24 -233 15z"/>
<path d="M16540 16153 c-21 -26 -22 -35 -17 -143 6 -114 43 -360 72 -475 16
-62 93 -235 105 -235 4 0 53 25 109 55 249 133 343 229 371 376 12 64 6 99
-26 155 -58 102 -199 192 -404 259 -136 44 -180 45 -210 8z"/>
<path d="M15114 16100 c-54 -21 -104 -126 -104 -215 0 -85 54 -195 96 -195 7
0 51 14 98 31 141 51 236 159 236 267 0 53 -36 94 -96 111 -46 13 -200 14
-230 1z"/>
<path d="M21297 17059 c-99 -66 -176 -181 -184 -278 -10 -109 50 -276 109
-307 46 -24 73 -3 120 95 52 109 128 340 128 389 0 37 -29 96 -59 119 -27 21
-65 15 -114 -18z"/>
<path d="M20015 16105 c-38 -13 -100 -29 -136 -34 -80 -11 -130 -42 -207 -126
-127 -139 -52 -279 169 -314 93 -16 233 -14 274 3 42 18 53 39 64 123 5 38 16
97 26 132 14 56 15 74 4 130 -21 114 -63 132 -194 86z"/>
<path d="M22645 16907 c-39 -19 -64 -47 -81 -94 -14 -39 -18 -171 -8 -234 l6
-36 72 4 c151 9 215 46 262 148 38 81 26 170 -28 204 -32 20 -185 25 -223 8z"/>
<path d="M6264 20800 c-282 -41 -476 -297 -435 -572 38 -251 251 -432 506
-430 202 2 383 123 462 311 25 60 27 77 27 191 0 114 -2 131 -27 191 -88 208
-316 341 -533 309z"/>
<path d="M10465 20611 c-128 -33 -225 -154 -225 -281 0 -103 72 -215 167 -261
73 -34 170 -33 245 4 211 104 213 410 4 512 -57 28 -141 39 -191 26z"/>
<path d="M25324 20526 c-30 -30 -34 -40 -34 -86 0 -46 4 -56 34 -86 29 -29 41
-34 79 -34 37 0 51 6 75 30 81 80 29 210 -84 210 -28 0 -44 -8 -70 -34z"/>
<path d="M29170 18099 c-178 -26 -338 -152 -401 -317 -33 -87 -38 -239 -10
-330 64 -211 255 -353 478 -354 144 0 260 47 360 147 271 271 150 737 -217
838 -75 21 -144 26 -210 16z"/>
<path d="M5551 16796 c-69 -38 -67 -162 4 -194 49 -23 94 -15 131 22 28 28 34
42 34 76 0 34 -6 48 -34 76 -27 27 -42 34 -72 34 -22 -1 -50 -7 -63 -14z"/>
<path d="M4231 13574 c-249 -67 -397 -332 -321 -577 85 -273 392 -404 648
-276 76 38 174 139 207 214 82 184 44 386 -97 522 -35 33 -82 70 -105 82 -98
50 -227 63 -332 35z"/>
<path d="M28183 12439 c-43 -28 -73 -78 -73 -124 0 -53 52 -105 107 -105 75 0
143 68 143 144 0 30 -7 45 -34 72 -41 41 -92 46 -143 13z"/>
</g>
</svg>
